<svg width="48" height="48" viewBox="0 0 48 48" fill="none" xmlns="http://www.w3.org/2000/svg">
<path d="M41.68 13H24.77C22.77 12.9 18.84 8.77002 16.58 8.77002H6.67996C6.38942 8.76994 6.1018 8.82794 5.834 8.94061C5.5662 9.05328 5.32362 9.21834 5.12052 9.4261C4.91742 9.63386 4.7579 9.88012 4.65133 10.1504C4.54476 10.4207 4.4933 10.7096 4.49996 11V18.29H43.5V14.87C43.5053 14.6297 43.4632 14.3907 43.3761 14.1666C43.289 13.9425 43.1586 13.7378 42.9924 13.5642C42.8262 13.3905 42.6273 13.2513 42.4073 13.1545C42.1873 13.0577 41.9503 13.0052 41.71 13H41.68Z" stroke="black" stroke-linecap="round" stroke-linejoin="round"/>
<path d="M4.49997 18.28V37C4.49733 37.2863 4.55111 37.5703 4.65823 37.8358C4.76536 38.1013 4.92373 38.3431 5.12431 38.5474C5.32489 38.7517 5.56374 38.9145 5.82723 39.0265C6.09072 39.1384 6.37369 39.1974 6.65997 39.2H41.32C41.8981 39.2 42.4526 38.9704 42.8615 38.5615C43.2703 38.1527 43.5 37.5982 43.5 37.02V37V18.28" stroke="black" stroke-linecap="round" stroke-linejoin="round"/>
<path d="M31.274 22.754H33.704M33.704 22.754C35.924 22.754 37.726 24.559 37.726 26.785C37.726 29.011 35.925 30.816 33.703 30.816L37.726 34.754M33.704 22.754H39.226M31.274 26.805H39.226" stroke="black" stroke-linecap="round" stroke-linejoin="round"/>
</svg>
